<?xml version="1.0" standalone="no"?>
<svg version="1.0" xmlns="http://www.w3.org/2000/svg"
 width="600" height="600" viewBox="0 0 600.000000 600.000000"
 preserveAspectRatio="xMidYMid meet">

<g transform="translate(0.000000,600.000000) scale(0.100000,-0.100000)"
fill="#ffffff" stroke="none">
<path d="M2060 3182 c-212 -454 -391 -839 -398 -856 -15 -35 -18 -38 73 69
167 196 369 358 623 496 20 12 39 36 57 78 15 34 30 61 34 61 3 0 13 -18 22
-39 l17 -39 85 34 c47 18 134 48 194 65 59 18 109 33 111 34 3 3 -417 907
-426 917 -4 3 -180 -365 -392 -820z"/>
<path d="M2920 4005 c0 -3 19 -47 43 -98 23 -51 65 -140 92 -198 l49 -106 425
-2 c338 -2 430 -5 451 -16 40 -21 87 -79 99 -122 13 -47 13 -59 1 -105 -36
-127 -171 -175 -635 -228 -182 -20 -458 -69 -594 -105 -588 -156 -1009 -474
-1320 -997 l-23 -38 225 0 224 0 41 58 c134 190 325 353 539 461 180 90 481
169 783 206 74 9 147 18 161 21 24 5 29 -1 79 -110 29 -63 56 -114 59 -112 3
2 6 -6 7 -17 1 -12 52 -131 115 -264 l114 -242 223 -1 c122 0 222 2 222 4 0 2
-51 114 -114 248 -62 133 -146 312 -185 397 -39 84 -70 155 -69 156 2 2 39 13
83 25 260 71 412 219 461 450 46 216 -9 413 -156 561 -72 72 -129 109 -229
148 l-66 26 -552 3 c-304 2 -553 0 -553 -3z"/>
<path d="M2955 2604 c-84 -21 -254 -72 -263 -79 -1 -1 54 -124 124 -274 l127
-271 223 0 c123 0 224 4 224 8 0 5 -58 132 -128 283 -70 151 -136 293 -146
317 -23 50 -23 50 -161 16z"/>
</g>
</svg>
